<svg id="img3" xmlns="http://www.w3.org/2000/svg" viewBox="0 0 1247.09 369.66"><defs><style>.cls-1{fill:#d7b98e;}.cls-2{fill:#003eff;}.cls-3,.cls-4{fill:#ff616f;}.cls-4{font-size:130.84px;font-family:MeiryoUI, Meiryo UI;}.cls-5{fill:#432c85;}</style></defs><title>unusnewlogo</title><circle id="_3.14" data-name="3.14" class="cls-1" cx="172.5" cy="172.5" r="172.5"/><path class="cls-2" d="M86.5,457.22A698.89,698.89,0,0,1,126.09,372c11.22-20.51,23.54-40.85,38.93-58.53,6.32-7.25,13.25-14.17,21.27-19.53,11.35-7.58,25.64-10.83,38.83-13.49,17.94-3.61,38.56-5.54,56.34.27,18.09,5.91,32.06,20.52,39.34,37.79,5.58,13.23,10.75,26.66,15.39,40.25,4.55,13.32,9.12,27.08,11,41.09.46,3.5,1.66,8.41-1.41,11-3.94,3.36-10.23,1.32-14.05-1.31-2.51-1.72-4.61-3.93-7.21-5.54-4.52-2.8-9.75-4.3-14.91-5.43-7.06-1.55-12.59-2.29-19-5.7a112.5,112.5,0,0,1-31.74-25.56,273.17,273.17,0,0,1-21.62-28.74c-4.83-7.46-6.54-17.52-14.69-22.36-5.49-3.25-12.16-3.53-18.37-3.34-.84,0-.77,5,0,5,6.89-.21,14.64.15,20.27,4.67,3.77,3,5.8,7.39,7.73,11.69,5.11,11.4,13.16,21.16,20.83,30.92a132.33,132.33,0,0,0,27.71,26.58c5.94,4.2,12.73,8.59,19.94,10.2,10.13,2.27,19.72,3.31,28,10.14,4.86,4,15.65,9.55,19.31,1.19,1.24-2.84.95-6.79.81-9.81a95.59,95.59,0,0,0-2.41-16.39c-3.15-14.33-7.85-28.34-12.84-42.12-4.89-13.5-9.51-28.12-16.82-40.54a67,67,0,0,0-27-25.25c-10.31-5.32-21.85-6.79-33.36-6.9-16.19-.14-32.33,2.75-47.81,7.33-10.66,3.15-19.86,7-28.49,14-17.74,14.47-31,34.44-42.81,53.83-19.89,32.74-36.43,67.85-50.43,103.5q-.41,1-.78,2c-.38,1,.22,5.19.55,4.31Z" transform="translate(-57.99 -192)"/><path class="cls-2" d="M258,366.08c-11.58,4-22.61,10.35-32.93,16.86A240.88,240.88,0,0,0,160,443.58a252.58,252.58,0,0,0-32,58.58c-.38,1,.21,5.19.55,4.31,21.71-55.92,63.72-104.5,118.2-130.57A109.52,109.52,0,0,1,258,371.08c1.13-.4.31-5.11,0-5Z" transform="translate(-57.99 -192)"/><path class="cls-2" d="M234,333.64c-9.79,2.27-19.3,7.35-28,12.26-25.06,14.21-47,33.64-66.33,54.87a450.57,450.57,0,0,0-46.4,61.49c-.74,1.17.31,4.81.3,4.83,21.67-34,47.13-66.24,78.22-92.19,15.94-13.3,33.57-25.4,52.94-33.13a64.28,64.28,0,0,1,9.23-3.13c1.06-.24.48-5.11,0-5Z" transform="translate(-57.99 -192)"/><rect id="h1" class="cls-1" x="375.01" y="208" width="522.1" height="122.09"/><rect id="gb" class="cls-3" x="960.04" y="208" width="282.96" height="122.09"/><text class="cls-4" transform="translate(372.55 307.67) rotate(0.29)">ｕｎｕｓ<tspan class="cls-5" x="523.36" y="0" xml:space="preserve">  </tspan><tspan class="cls-1" x="612.29" y="0">ｍｅ</tspan></text><rect class="cls-2" x="912.01" y="308" width="22" height="22"/></svg>